# xmcd
#
# Track frame offsets:
#	150
#	13415
#	25769
#	46642
#	57092
#	71466
#	82707
#	98206
#	109813
#	120314
#	130481
#	140275
#	152931
#	171624
#	183473
#
# Disc length: 2560 seconds
# Revision: 0
# Processed by: cddbd v1.5.2PL0 Copyright (c) Steve Scherf et al.
# Submitted via: dBpowerAMP V12.0
#
DISCID=c409fe0f
DTITLE=Big Country Bluegrass - Open For Business
DYEAR=2008
DGENRE=Bluegrass
TTITLE0=High Alleghenies
TTITLE1=All That's Left (Is For You To Leave)
TTITLE2=Ghost Of A Love
TTITLE3=I'Ve Lost You
TTITLE4=Nashville Jail
TTITLE5=This Time I've Learned
TTITLE6=Weary Traveler
TTITLE7=Back Stop (Instrumental)
TTITLE8=I'll Never Dream No More
TTITLE9=Old Time Preacher Man
TTITLE10=I Guess I'll Go On Dreaming
TTITLE11=Just Another Broken Heart
TTITLE12=Old Kentucky Store
TTITLE13=Banjo Riff (Instrumental)
TTITLE14=The Bible's True (The Monkey Song)
EXTD=
EXTT0=
EXTT1=
EXTT2=
EXTT3=
EXTT4=
EXTT5=
EXTT6=
EXTT7=
EXTT8=
EXTT9=
EXTT10=
EXTT11=
EXTT12=
EXTT13=
EXTT14=
PLAYORDER=
